name Walk9.mot
datacolumns 19
datarows 20
range 2.17500000 2.27000000
endheader

                time	   L_ground_force_vx	   L_ground_force_vy	   L_ground_force_vz	   L_ground_force_px	   L_ground_force_py	   L_ground_force_pz	   R_ground_force_vx	   R_ground_force_vy	   R_ground_force_vz	   R_ground_force_px	   R_ground_force_py	   R_ground_force_pz	   L_ground_torque_x	   L_ground_torque_y	   L_ground_torque_z	   R_ground_torque_x	   R_ground_torque_y	   R_ground_torque_z	
          2.17500000	          0.07317783	          0.21827136	          0.00340573	         -0.00019198	          0.00000000	         -0.00006273	        -24.88673737	        875.69608767	        -61.43645909	          0.28942317	          0.00000000	          0.13214824	          0.00000000	          0.00054564	          0.00000000	          0.00000000	         10.02731554	          0.00000000	
          2.18000000	          0.05538623	          0.17214387	          0.00346994	         -0.00021725	          0.00000000	         -0.00007583	        -23.50780561	        875.57340741	        -60.81561447	          0.29054369	          0.00000000	          0.13220122	          0.00000000	          0.00046583	          0.00000000	          0.00000000	          9.75720971	          0.00000000	
          2.18500000	          0.03959644	          0.12894871	          0.00323668	         -0.00021627	          0.00000000	         -0.00007824	        -22.08508764	        876.00118137	        -60.34132871	          0.29162792	          0.00000000	          0.13224948	          0.00000000	          0.00037781	          0.00000000	          0.00000000	          9.48600242	          0.00000000	
          2.19000000	          0.02633916	          0.09105020	          0.00283112	         -0.00019854	          0.00000000	         -0.00007360	        -20.61390299	        876.94748428	        -60.03628527	          0.29267882	          0.00000000	          0.13229240	          0.00000000	          0.00029149	          0.00000000	          0.00000000	          9.21269447	          0.00000000	
          2.19500000	          0.01575441	          0.05954566	          0.00234713	         -0.00017147	          0.00000000	         -0.00006480	        -19.09317585	        878.37563102	        -59.91176027	          0.29370048	          0.00000000	          0.13232968	          0.00000000	          0.00021308	          0.00000000	          0.00000000	          8.93643242	          0.00000000	
          2.20000000	          0.00772063	          0.03463306	          0.00185113	         -0.00014055	          0.00000000	         -0.00005403	        -17.52432135	        880.24583681	        -59.96900641	          0.29469716	          0.00000000	          0.13236138	          0.00000000	          0.00014594	          0.00000000	          0.00000000	          8.65669013	          0.00000000	
          2.20500000	          0.00195812	          0.01591804	          0.00138665	         -0.00010960	          0.00000000	         -0.00004285	        -15.91028187	        882.51535724	        -60.20017997	          0.29567356	          0.00000000	          0.13238792	          0.00000000	          0.00009135	          0.00000000	          0.00000000	          8.37346627	          0.00000000	
          2.21000000	         -0.00189213	          0.00265753	          0.00097912	         -0.00008109	          0.00000000	         -0.00003230	        -14.25587935	        885.13965850	        -60.58999944	          0.29663516	          0.00000000	          0.13241035	          0.00000000	          0.00004911	          0.00000000	          0.00000000	          8.08717055	          0.00000000	
          2.21500000	         -0.00421158	         -0.00605635	          0.00064035	         -0.00005639	          0.00000000	         -0.00002297	        -12.56819765	        888.07009900	        -61.11715356	          0.29758753	          0.00000000	          0.13242972	          0.00000000	          0.00001814	          0.00000000	          0.00000000	          7.79855307	          0.00000000	
          2.22000000	         -0.00536591	         -0.01116541	          0.00037245	         -0.00003609	          0.00000000	         -0.00001518	        -10.85690519	        891.25485930	        -61.75508149	          0.29853614	          0.00000000	          0.13244713	          0.00000000	         -0.00000315	          0.00000000	          0.00000000	          7.50857809	          0.00000000	
          2.22500000	         -0.00568178	         -0.01355871	          0.00017120	         -0.00002022	          0.00000000	         -0.00000898	         -9.13421191	        894.64183531	        -62.47240486	          0.29948573	          0.00000000	          0.13246321	          0.00000000	         -0.00001656	          0.00000000	          0.00000000	          7.21801056	          0.00000000	
          2.23000000	         -0.00543499	         -0.01402115	          0.00002860	         -0.00000844	          0.00000000	         -0.00000429	         -7.41368961	        898.18260406	        -63.23420222	          0.30043950	          0.00000000	          0.13247880	          0.00000000	         -0.00002385	          0.00000000	          0.00000000	          6.92714394	          0.00000000	
          2.23500000	         -0.00484688	         -0.01320880	         -0.00006511	         -0.00000022	          0.00000000	         -0.00000095	         -5.70810539	        901.83466030	        -64.00517534	          0.30140015	          0.00000000	          0.13249504	          0.00000000	         -0.00002663	          0.00000000	          0.00000000	          6.63613822	          0.00000000	
          2.24000000	         -0.00408641	         -0.01164320	         -0.00012005	          0.00000507	          0.00000000	          0.00000127	         -4.02749479	        905.55985759	        -64.75295230	          0.30237149	          0.00000000	          0.13251304	          0.00000000	         -0.00002631	          0.00000000	          0.00000000	          6.34508085	          0.00000000	
          2.24500000	         -0.00327554	         -0.00971838	         -0.00014579	          0.00000806	          0.00000000	          0.00000260	         -2.37894663	        909.32319506	        -65.45090977	          0.30335821	          0.00000000	          0.13253334	          0.00000000	         -0.00002403	          0.00000000	          0.00000000	          6.05402031	          0.00000000	
          2.25000000	         -0.00249650	         -0.00771542	         -0.00015077	          0.00000934	          0.00000000	          0.00000324	         -0.76732007	        913.09382448	        -66.08042363	          0.30436513	          0.00000000	          0.13255610	          0.00000000	         -0.00002066	          0.00000000	          0.00000000	          5.76304186	          0.00000000	
          2.25500000	         -0.00179947	         -0.00582076	         -0.00014203	          0.00000942	          0.00000000	          0.00000340	          0.80467421	        916.84438036	        -66.63152085	          0.30539774	          0.00000000	          0.13258156	          0.00000000	         -0.00001687	          0.00000000	          0.00000000	          5.47226405	          0.00000000	
          2.26000000	         -0.00121016	         -0.00414540	         -0.00012520	          0.00000873	          0.00000000	          0.00000323	          2.33631048	        920.54701256	        -67.10104633	          0.30646188	          0.00000000	          0.13260953	          0.00000000	         -0.00001310	          0.00000000	          0.00000000	          5.18162442	          0.00000000	
          2.26500000	         -0.00073654	         -0.00274318	         -0.00010450	          0.00000759	          0.00000000	          0.00000286	          3.82815555	        924.17020404	        -67.49124696	          0.30756227	          0.00000000	          0.13263938	          0.00000000	         -0.00000965	          0.00000000	          0.00000000	          4.89106460	          0.00000000	
          2.27000000	         -0.00037457	         -0.00162701	         -0.00008297	          0.00000627	          0.00000000	          0.00000240	          5.28095182	        927.68014376	        -67.80817953	          0.30870314	          0.00000000	          0.13267093	          0.00000000	         -0.00000668	          0.00000000	          0.00000000	          4.60064754	          0.00000000	
